<svg xmlns="http://www.w3.org/2000/svg" width="2172" height="495" viewBox="0 0 2172 495">
  <defs>
    <style>
      .cls-1 {
        fill: #c4483e;
      }

      .cls-1, .cls-2, .cls-3 {
        fill-rule: evenodd;
      }

      .cls-2 {
        fill: #31787b;
      }

      .cls-3 {
        fill: #ecb155;
      }
    </style>
  </defs>
  <path class="cls-1" d="M52,495H0V65S-7.306,0,60,0H316s49-.439,49,49V201s0.3,29.74-22,38H287s23.91-9.068,26-40,0-129,0-129,3.617-24-24-24H85S49,42.623,49,82,52,495,52,495Z"/>
  <path class="cls-2" d="M62,495h55V119s-3.053-6,6-6H230s12-.354,12,12v60s2.044,12-12,12H176s-42,4.634-42,42H268s32-3.3,32-32V78s2.216-21-21-21H86S58,60.083,58,85,62,495,62,495Z"/>
  <path class="cls-3" d="M135,244H335s25,1.58,25,25v80s1.85,16,16,16h37s14-.524,14-14V51S421.8,0,492,0h533s26,3.106,26,27V66H520s-18-1.538-18,18V355s10.866,72-62,72H354s-50-3.01-50-56V318s1.844-14-14-14H135V244Z"/>
  <path class="cls-1" d="M232,315h46s13,1.059,13,13,0.158,55.023.158,55.023C291.3,394.776,303.155,433.4,346,434c34.981,0.489,69.617,1,97,1,44.892,0,72.375-16.945,72-60-0.362-41.563,0-292,0-292s-0.763-13,13-13h522v52H570s-21,1.019-21,21V444s8.993,51-57,51H316s-84,10.476-84-78V315Z"/>
  <path class="cls-2" d="M557,189V311H674V238s4.6-49-49-49H557Z"/>
  <path class="cls-2" d="M859,133h58V460s5.34,35-31,35H760V443s-5.727-40,33-40,66-1,66-1V133Z"/>
  <path class="cls-3" d="M926,133h57V378s2.052,23,23,23h95v94H953s-24,.949-24-24S926,133,926,133Z"/>
  <path class="cls-1" d="M1188,1V397h302v71s4.67,27-28,27H1155s-33,1.645-33-32V58S1119.79,1,1188,1Z"/>
  <path class="cls-2" d="M1193,0V392h48V20s-1.09-20-20-20h-28Z"/>
  <path class="cls-3" d="M1367,0h52V391h-53Z"/>
  <path class="cls-2" d="M1425,392V0h677s70,1.312,70,52V80H1512s-21-.2-21,21V391Z"/>
  <path class="cls-1" d="M1553,495V104s-2.15-17,16-17h36s14,2.631,14,15V495h-66Z"/>
  <path class="cls-3" d="M1632,495V87h288V495h-51V128H1675V445S1676.34,495,1632,495Z"/>
  <path class="cls-1" d="M1861,495V133h-60V436S1802.69,495,1861,495Z"/>
  <path class="cls-1" d="M1926,87h181V495s-62,.5-62-62V132H1927Z"/>
  <path class="cls-3" d="M2112,87h60V495h-61Z"/>
</svg>
