<?xml version="1.0" standalone="no"?>
<!DOCTYPE svg PUBLIC "-//W3C//DTD SVG 1.1//EN" "http://www.w3.org/Graphics/SVG/1.1/DTD/svg11.dtd">
<svg xmlns="http://www.w3.org/2000/svg" id="Layer_1" data-name="Layer 1" viewBox="0 0 403.05 78.62" width="403.04998779296875" height="78.62000274658203">
  <defs>
    <style>
      .cls-1 {
        fill: #5b5b5c;
      }

      .cls-2 {
        fill: #71a4d5;
      }

      .cls-3 {
        fill: #f27125;
      }

      .cls-4 {
        fill: #0f6db5;
      }

      .cls-5 {
        fill: #f9af42;
      }
    </style>
  </defs>
  <title>dirologo</title>
  <g>
    <path class="cls-1" d="M369.47.32c2.31.56,4.66,1,6.94,1.71,18.5,5.63,28.79,23.43,26.69,41.42-1.73,14.81-9,25.93-22.75,32.13-22.47,10.15-48.5-3.72-53-28-3.16-17.16,3.29-32.93,17-41.49a37.13,37.13,0,0,1,12.88-5c.78-.15,1.72,0,2.33-.74ZM337.58,39.76A29.42,29.42,0,0,0,339.05,49c5.76,18.34,26.66,25.77,41.47,14.51,10.09-7.67,13.27-18.3,11.2-30.51A27.3,27.3,0,0,0,358.5,11.08C346.21,14,337.6,25.49,337.58,39.76Z" transform="translate(-0.32 -0.32)"/>
    <path class="cls-2" d="M66.5,77.41c-.71,0-1.42.16-2.13.16-13.36,0-26.71,0-40.07,0a3,3,0,0,1-3-1.74C14.53,64,7.68,52.25.85,40.46a4.7,4.7,0,0,0-.53-.65V39a.67.67,0,0,1,.37-.05c.51.74,1.29.47,2,.47q20.94,0,41.88,0,11,19,22,37.95Z" transform="translate(-0.32 -0.32)"/>
    <path class="cls-1" d="M158.74,41.9c0-9.58,0-19.17,0-28.75,0-1.67-.25-2.36-2.16-2.3-4.76.13-4.76,0-4.76-4.73,0-4.52,0-4.52,4.54-4.52,8.79,0,17.59,0,26.38,0A43.27,43.27,0,0,1,198.3,4.38,31.51,31.51,0,0,1,217.82,24.9,46.63,46.63,0,0,1,218,53.38a33.27,33.27,0,0,1-29.45,23.81c-7.93.73-15.86.31-23.79.34-4,0-6-2.17-6-6.46-.07-4.72,0-9.44,0-14.16ZM169.41,39q0,13.08,0,26.17c0,2.54.5,3.12,3,3.11,4.36,0,8.75.18,13.07-.24,10.41-1,18-6.18,21.63-16.23,2.28-6.25,2.38-12.73,1.41-19.25-1.6-10.67-8.46-18.2-18.94-20.79-6-1.49-12.09-.65-18.14-.93-1.61-.08-2,.37-2,2C169.45,21.59,169.41,30.31,169.41,39Z" transform="translate(-0.32 -0.32)"/>
    <path class="cls-1" d="M303.36,44.2a11.9,11.9,0,0,1,3.93,5.12c2.53,5.19,5.2,10.32,7.65,15.55,1.07,2.28,2.55,3.61,5.1,3.4,1.82-.15,2.34.6,2.19,2.34a34.25,34.25,0,0,0,0,5.36c.1,1.38-.44,1.71-1.71,1.64-1.78-.1-3.57,0-5.36,0a8.58,8.58,0,0,1-8.36-5.23c-3.21-6.61-6.54-13.17-9.83-19.74A25.59,25.59,0,0,0,295.52,50a5,5,0,0,0-4.26-2.48c-3.58,0-7.15,0-10.73-.14-1.55,0-1.26,1-1.26,1.85,0,8.8,0,17.6,0,26.39,0,1.6-.37,2.13-2,2a47.61,47.61,0,0,0-6.65,0c-1.73.13-2.09-.48-2.09-2.12q.09-30.9,0-61.8c0-2.8,0-2.8-2.86-2.8-4,0-4.06,0-4-4,0-1.7-.73-3.9.31-5s3.25-.31,4.94-.32c9.44,0,18.88-.09,28.32,0,9.27.09,16.6,5,19.76,12.87,3.5,8.79,1.63,19.37-4.54,25.32a19.29,19.29,0,0,1-3.21,2.49A41.47,41.47,0,0,1,303.36,44.2ZM279.27,24.35c0,4.07,0,8.14,0,12.2,0,1.2.33,1.59,1.55,1.57,3.78-.08,7.57,0,11.35,0,8.26,0,12.69-3.75,13.59-11.91.83-7.44-2.33-15.59-13.26-15.3-3.85.1-7.71.07-11.57,0-1.34,0-1.69.4-1.66,1.7C279.32,16.49,279.27,20.42,279.27,24.35Z" transform="translate(-0.32 -0.32)"/>
    <path class="cls-3" d="M88.73,39.4,66.86,1.71a2.55,2.55,0,0,1,1.86-.34q20.16,0,40.33,0a2.49,2.49,0,0,1,2.62,1.28c6.8,11.9,13.67,23.76,20.5,35.64a6.9,6.9,0,0,1,.45,1.17Z" transform="translate(-0.32 -0.32)"/>
    <path class="cls-4" d="M44.53,39.37q-20.94,0-41.88,0c-.67,0-1.45.27-2-.47q10.49-18.06,21-36.11a2.53,2.53,0,0,1,2.52-1.48q20.26.06,40.53,0c1.26,0,2.16-.1,1.13,1.64Q55.13,21.13,44.53,39.37Z" transform="translate(-0.32 -0.32)"/>
    <path class="cls-5" d="M88.73,39.4l43.89,0c-.14,1.34-1.05,2.31-1.68,3.4q-9.6,16.56-19.25,33.09c-.56.95-1,1.69-2.39,1.69-13.84-.06-27.69,0-41.54-.05a9,9,0,0,1-1.26-.16v-.09Q73.7,65.1,80.9,52.87C83.53,48.39,86.12,43.89,88.73,39.4Z" transform="translate(-0.32 -0.32)"/>
    <path class="cls-1" d="M245.46,39.81c0,8.8,0,17.59,0,26.39,0,1.59.28,2.31,2.07,2.22s3.88-.8,4.93.32.29,3.28.32,5c0,3.86,0,3.86-3.91,3.86-6.29,0-12.58,0-18.88,0-1.33,0-1.92-.25-1.82-1.74.13-2,.08-4,0-6,0-1.06.22-1.66,1.41-1.5a8.22,8.22,0,0,0,.86,0c5,0,5,0,5-5.17,0-16.67,0-33.33.05-50,0-1.92-.51-2.39-2.38-2.35-5,.12-5,0-5-5,0-4.28,0-4.28,4.37-4.28,6.15,0,12.3,0,18.45,0,1.36,0,1.89.3,1.8,1.75-.12,2.07-.07,4.15,0,6.22,0,1-.3,1.43-1.35,1.38-1.35-.07-2.72.07-4.07-.05s-1.94.39-1.93,1.9C245.5,21.79,245.46,30.8,245.46,39.81Z" transform="translate(-0.32 -0.32)"/>
  </g>
</svg>